<mxfile host="app.diagrams.net" modified="2023-05-12T14:47:15.743Z" agent="Mozilla/5.0 (X11; Linux x86_64) AppleWebKit/537.36 (KHTML, like Gecko) Chrome/113.0.0.0 Safari/537.36" version="21.2.9" etag="2G6Vf7POL1eDUYkI9RN6" type="github">
  <diagram name="第 1 页" id="sd30ocxsA2JZkORIwssl">
    <mxGraphModel>
      <root>
        <mxCell id="0" />
        <mxCell id="1" parent="0" />
      </root>
    </mxGraphModel>
  </diagram>
</mxfile>
